<?xml version="1.0" encoding="UTF-8"?><svg id="Layer_1" xmlns="http://www.w3.org/2000/svg" xmlns:xlink="http://www.w3.org/1999/xlink" viewBox="0 0 1063.04 635.59"><path d="M63.39,623.47h0c-56.62-28.31-79.57-97.16-51.26-153.78L215.27,63.39C243.58,6.77,312.43-16.18,369.06,12.13h0c56.62,28.31,79.57,97.16,51.26,153.78l-203.15,406.3c-28.31,56.62-97.16,79.57-153.78,51.26Z" fill="#FFFFFF"/><path d="M426.37,623.47h0c-56.62-28.31-79.57-97.16-51.26-153.78L578.26,63.39c28.31-56.62,97.16-79.57,153.78-51.26h0c56.62,28.31,79.57,97.16,51.26,153.78l-203.15,406.3c-28.31,56.62-97.16,79.57-153.78,51.26Z" fill="#FFFFFF"/><path d="M1063.04,596.33v15.7c0,13.02-10.54,23.56-23.56,23.56h-135.49c-84.41,0-152.85-68.42-152.85-152.83s68.44-152.83,152.85-152.83,152.83,68.42,152.83,152.83c0,33.65-10.89,64.77-29.31,90.01h11.98c13.02,0,23.56,10.54,23.56,23.56Z" fill="#FFFFFF"/></svg>
